<svg width="722" height="256" viewBox="0 0 722 256" fill="none" xmlns="http://www.w3.org/2000/svg">
<path d="M113.004 168.816V209.695C111.318 211.564 108.72 213.569 105.211 215.711C101.747 217.807 97.3724 219.607 92.0859 221.111C86.7995 222.615 80.5788 223.367 73.4238 223.367C66.8158 223.367 60.8229 222.319 55.4453 220.223C50.0677 218.081 45.4421 214.959 41.5684 210.857C37.7402 206.71 34.778 201.652 32.6816 195.682C30.6309 189.666 29.6055 182.785 29.6055 175.037V169.5C29.6055 161.753 30.6536 154.871 32.75 148.855C34.8464 142.84 37.7858 137.781 41.5684 133.68C45.3965 129.533 49.8854 126.388 55.0352 124.246C60.2305 122.104 65.9271 121.033 72.125 121.033C81.2852 121.033 88.7363 122.492 94.4785 125.408C100.221 128.279 104.573 132.267 107.535 137.371C110.497 142.43 112.298 148.286 112.936 154.939H89.8984C89.4427 151.658 88.5768 148.878 87.3008 146.6C86.0703 144.275 84.293 142.521 81.9688 141.336C79.6445 140.105 76.6367 139.49 72.9453 139.49C70.0742 139.49 67.4538 140.105 65.084 141.336C62.7598 142.566 60.7773 144.435 59.1367 146.941C57.4961 149.402 56.2201 152.501 55.3086 156.238C54.4427 159.975 54.0098 164.35 54.0098 169.363V175.037C54.0098 180.005 54.4199 184.357 55.2402 188.094C56.1061 191.831 57.3822 194.952 59.0684 197.459C60.8001 199.92 62.9876 201.788 65.6309 203.064C68.3197 204.295 71.487 204.91 75.1328 204.91C77.6849 204.91 79.8724 204.705 81.6953 204.295C83.5182 203.839 85.0221 203.292 86.207 202.654C87.4375 201.971 88.3717 201.333 89.0098 200.74V185.291H72.3301V168.816H113.004ZM149.166 166.355V222H126.129V148.035H147.662L149.166 166.355ZM171.041 147.488L170.631 168.885C169.719 168.794 168.489 168.68 166.939 168.543C165.39 168.406 164.091 168.338 163.043 168.338C160.354 168.338 158.03 168.657 156.07 169.295C154.156 169.887 152.561 170.799 151.285 172.029C150.055 173.214 149.143 174.718 148.551 176.541C148.004 178.364 147.753 180.483 147.799 182.898L143.629 180.164C143.629 175.197 144.107 170.685 145.064 166.629C146.067 162.527 147.48 158.995 149.303 156.033C151.126 153.025 153.336 150.724 155.934 149.129C158.531 147.488 161.448 146.668 164.684 146.668C165.823 146.668 166.939 146.736 168.033 146.873C169.173 147.01 170.175 147.215 171.041 147.488ZM213.424 223.367C207.408 223.367 202.031 222.433 197.291 220.564C192.551 218.65 188.541 216.03 185.26 212.703C182.024 209.376 179.54 205.548 177.809 201.219C176.122 196.889 175.279 192.309 175.279 187.479V184.881C175.279 179.458 176.031 174.445 177.535 169.842C179.039 165.193 181.272 161.137 184.234 157.674C187.197 154.21 190.911 151.521 195.377 149.607C199.843 147.648 205.038 146.668 210.963 146.668C216.204 146.668 220.898 147.511 225.045 149.197C229.192 150.883 232.701 153.299 235.572 156.443C238.489 159.588 240.699 163.393 242.203 167.859C243.753 172.326 244.527 177.339 244.527 182.898V192.264H184.098V177.84H222.037V176.062C222.083 173.602 221.65 171.505 220.738 169.773C219.872 168.042 218.596 166.72 216.91 165.809C215.224 164.897 213.173 164.441 210.758 164.441C208.251 164.441 206.178 164.988 204.537 166.082C202.942 167.176 201.689 168.68 200.777 170.594C199.911 172.462 199.296 174.627 198.932 177.088C198.567 179.549 198.385 182.146 198.385 184.881V187.479C198.385 190.213 198.749 192.697 199.479 194.93C200.253 197.163 201.347 199.077 202.76 200.672C204.218 202.221 205.95 203.429 207.955 204.295C210.006 205.161 212.33 205.594 214.928 205.594C218.072 205.594 221.171 205.001 224.225 203.816C227.278 202.632 229.898 200.672 232.086 197.938L242.545 210.379C241.041 212.521 238.899 214.594 236.119 216.6C233.385 218.605 230.104 220.245 226.275 221.521C222.447 222.752 218.163 223.367 213.424 223.367ZM289.713 223.367C283.697 223.367 278.32 222.433 273.58 220.564C268.84 218.65 264.83 216.03 261.549 212.703C258.313 209.376 255.829 205.548 254.098 201.219C252.411 196.889 251.568 192.309 251.568 187.479V184.881C251.568 179.458 252.32 174.445 253.824 169.842C255.328 165.193 257.561 161.137 260.523 157.674C263.486 154.21 267.2 151.521 271.666 149.607C276.132 147.648 281.327 146.668 287.252 146.668C292.493 146.668 297.187 147.511 301.334 149.197C305.481 150.883 308.99 153.299 311.861 156.443C314.778 159.588 316.988 163.393 318.492 167.859C320.042 172.326 320.816 177.339 320.816 182.898V192.264H260.387V177.84H298.326V176.062C298.372 173.602 297.939 171.505 297.027 169.773C296.161 168.042 294.885 166.72 293.199 165.809C291.513 164.897 289.462 164.441 287.047 164.441C284.54 164.441 282.467 164.988 280.826 166.082C279.231 167.176 277.978 168.68 277.066 170.594C276.201 172.462 275.585 174.627 275.221 177.088C274.856 179.549 274.674 182.146 274.674 184.881V187.479C274.674 190.213 275.038 192.697 275.768 194.93C276.542 197.163 277.636 199.077 279.049 200.672C280.507 202.221 282.239 203.429 284.244 204.295C286.295 205.161 288.619 205.594 291.217 205.594C294.361 205.594 297.46 205.001 300.514 203.816C303.567 202.632 306.188 200.672 308.375 197.938L318.834 210.379C317.33 212.521 315.188 214.594 312.408 216.6C309.674 218.605 306.393 220.245 302.564 221.521C298.736 222.752 294.452 223.367 289.713 223.367ZM352.809 163.826V222H329.771V148.035H351.373L352.809 163.826ZM350.074 182.488L344.674 182.625C344.674 176.974 345.357 171.938 346.725 167.518C348.092 163.051 350.029 159.269 352.535 156.17C355.042 153.071 358.027 150.724 361.49 149.129C364.999 147.488 368.896 146.668 373.18 146.668C376.598 146.668 379.719 147.169 382.545 148.172C385.416 149.174 387.877 150.792 389.928 153.025C392.024 155.258 393.619 158.221 394.713 161.912C395.852 165.558 396.422 170.07 396.422 175.447V222H373.248V175.379C373.248 172.417 372.838 170.161 372.018 168.611C371.197 167.016 370.012 165.923 368.463 165.33C366.913 164.738 365.022 164.441 362.789 164.441C360.419 164.441 358.414 164.897 356.773 165.809C355.133 166.72 353.811 167.996 352.809 169.637C351.852 171.232 351.145 173.123 350.689 175.311C350.279 177.498 350.074 179.891 350.074 182.488ZM450.016 188.23H425.27V169.705H450.016C453.388 169.705 456.122 169.135 458.219 167.996C460.315 166.857 461.842 165.285 462.799 163.279C463.801 161.229 464.303 158.927 464.303 156.375C464.303 153.641 463.801 151.111 462.799 148.787C461.842 146.463 460.315 144.594 458.219 143.182C456.122 141.723 453.388 140.994 450.016 140.994H434.293V222H410.299V122.469H450.016C457.991 122.469 464.85 123.927 470.592 126.844C476.38 129.76 480.823 133.771 483.922 138.875C487.021 143.934 488.57 149.721 488.57 156.238C488.57 162.664 487.021 168.27 483.922 173.055C480.823 177.84 476.38 181.577 470.592 184.266C464.85 186.909 457.991 188.23 450.016 188.23ZM537.994 203.406V172.918C537.994 170.822 537.698 169.021 537.105 167.518C536.513 166.014 535.579 164.852 534.303 164.031C533.027 163.165 531.318 162.732 529.176 162.732C527.444 162.732 525.963 163.029 524.732 163.621C523.502 164.214 522.568 165.102 521.93 166.287C521.292 167.472 520.973 168.976 520.973 170.799H497.936C497.936 167.381 498.688 164.214 500.191 161.297C501.741 158.335 503.928 155.76 506.754 153.572C509.625 151.385 513.043 149.699 517.008 148.514C521.018 147.283 525.484 146.668 530.406 146.668C536.285 146.668 541.526 147.648 546.129 149.607C550.777 151.567 554.446 154.507 557.135 158.426C559.824 162.299 561.168 167.176 561.168 173.055V203.338C561.168 208.169 561.441 211.837 561.988 214.344C562.535 216.805 563.31 218.969 564.312 220.838V222H541.207C540.113 219.721 539.293 216.941 538.746 213.66C538.245 210.333 537.994 206.915 537.994 203.406ZM540.797 176.814L540.934 189.119H530.748C528.606 189.119 526.783 189.415 525.279 190.008C523.821 190.6 522.636 191.421 521.725 192.469C520.859 193.471 520.221 194.611 519.811 195.887C519.446 197.163 519.264 198.507 519.264 199.92C519.264 201.287 519.583 202.518 520.221 203.611C520.904 204.66 521.816 205.48 522.955 206.072C524.094 206.665 525.37 206.961 526.783 206.961C529.335 206.961 531.5 206.482 533.277 205.525C535.1 204.523 536.49 203.315 537.447 201.902C538.404 200.49 538.883 199.168 538.883 197.938L543.941 207.371C543.03 209.194 541.982 211.04 540.797 212.908C539.658 214.777 538.222 216.508 536.49 218.104C534.804 219.653 532.73 220.929 530.27 221.932C527.809 222.889 524.824 223.367 521.314 223.367C516.757 223.367 512.564 222.433 508.736 220.564C504.954 218.696 501.923 216.098 499.645 212.771C497.366 209.399 496.227 205.525 496.227 201.15C496.227 197.322 496.91 193.904 498.277 190.896C499.69 187.889 501.809 185.337 504.635 183.24C507.46 181.144 511.061 179.549 515.436 178.455C519.811 177.361 524.96 176.814 530.885 176.814H540.797ZM612.916 148.035V164.031H568.346V148.035H612.916ZM577.711 129.646H600.748V197.869C600.748 199.829 600.976 201.355 601.432 202.449C601.887 203.497 602.662 204.249 603.756 204.705C604.895 205.115 606.399 205.32 608.268 205.32C609.589 205.32 610.683 205.298 611.549 205.252C612.415 205.161 613.235 205.047 614.01 204.91V221.385C612.05 222.023 609.999 222.501 607.857 222.82C605.715 223.185 603.437 223.367 601.021 223.367C596.1 223.367 591.884 222.592 588.375 221.043C584.911 219.493 582.268 217.055 580.445 213.729C578.622 210.402 577.711 206.072 577.711 200.74V129.646ZM644.635 117V222H621.598V117H644.635ZM641.9 182.488L636.5 182.625C636.5 177.43 637.138 172.645 638.414 168.27C639.69 163.895 641.513 160.089 643.883 156.854C646.253 153.618 649.101 151.111 652.428 149.334C655.755 147.557 659.446 146.668 663.502 146.668C667.148 146.668 670.475 147.192 673.482 148.24C676.536 149.288 679.156 150.975 681.344 153.299C683.577 155.623 685.286 158.654 686.471 162.391C687.701 166.128 688.316 170.685 688.316 176.062V222H665.143V175.926C665.143 172.918 664.71 170.594 663.844 168.953C663.023 167.267 661.839 166.105 660.289 165.467C658.74 164.783 656.848 164.441 654.615 164.441C651.926 164.441 649.739 164.897 648.053 165.809C646.367 166.72 645.068 167.996 644.156 169.637C643.29 171.232 642.698 173.123 642.379 175.311C642.06 177.498 641.9 179.891 641.9 182.488Z" fill="white"/>
<path d="M106.5 84.7917C104.677 84.7917 102.928 84.0673 101.639 82.778C100.349 81.4887 99.625 79.74 99.625 77.9167C99.625 76.0933 100.349 74.3446 101.639 73.0553C102.928 71.766 104.677 71.0417 106.5 71.0417C108.323 71.0417 110.072 71.766 111.361 73.0553C112.651 74.3446 113.375 76.0933 113.375 77.9167C113.375 79.74 112.651 81.4887 111.361 82.778C110.072 84.0673 108.323 84.7917 106.5 84.7917ZM113.375 43.5417L122.358 55H101.917V43.5417M51.5 84.7917C49.6766 84.7917 47.928 84.0673 46.6387 82.778C45.3493 81.4887 44.625 79.74 44.625 77.9167C44.625 76.0933 45.3493 74.3446 46.6387 73.0553C47.928 71.766 49.6766 71.0417 51.5 71.0417C53.3234 71.0417 55.0721 71.766 56.3614 73.0553C57.6507 74.3446 58.375 76.0933 58.375 77.9167C58.375 79.74 57.6507 81.4887 56.3614 82.778C55.0721 84.0673 53.3234 84.7917 51.5 84.7917ZM115.667 36.6667H101.917V18.3333H37.75C32.6625 18.3333 28.5833 22.4125 28.5833 27.5V77.9167H37.75C37.75 81.5634 39.1987 85.0608 41.7773 87.6394C44.3559 90.218 47.8533 91.6667 51.5 91.6667C55.1467 91.6667 58.6441 90.218 61.2227 87.6394C63.8014 85.0608 65.25 81.5634 65.25 77.9167H92.75C92.75 81.5634 94.1987 85.0608 96.7773 87.6394C99.3559 90.218 102.853 91.6667 106.5 91.6667C110.147 91.6667 113.644 90.218 116.223 87.6394C118.801 85.0608 120.25 81.5634 120.25 77.9167H129.417V55L115.667 36.6667Z" fill="#38B177"/>
<path d="M37.954 52.0634C36.6195 52.0634 35.9391 52.459 35.3615 53.7917C33.7793 57.4431 35.983 59.9813 39.6401 60.7471C44.5023 61.7651 49.6525 60.6372 53.045 56.9111C54.0789 55.7754 55.538 54.0344 53.6562 53.1383C49.6917 51.2505 45.3024 50.5459 40.9469 50.5459C39.9171 50.5459 32.8159 51.6325 34.5395 52.0634" stroke="white" stroke-width="3" stroke-linecap="round"/>
<path d="M54.2674 49.4077C56.0603 49.5273 57.8404 50.1113 59.5788 50.5459" stroke="white" stroke-width="3" stroke-linecap="round"/>
<path d="M62.6138 50.5459C63.8761 50.3589 64.3596 49.7101 64.8901 48.649" stroke="white" stroke-width="3" stroke-linecap="round"/>
<path d="M66.4077 46.3727C67.3914 45.5464 67.454 44.8479 67.9252 43.717" stroke="white" stroke-width="3" stroke-linecap="round"/>
<path d="M68.3046 42.5789V41.8201" stroke="white" stroke-width="3" stroke-linecap="round"/>
<path d="M70.9602 31.9562C63.9998 29.5281 65.1924 40.0023 70.1382 38.8483C73.7461 38.0064 73.6792 29.3005 69.8221 29.3005" stroke="white" stroke-width="3" stroke-linecap="round"/>
<path d="M72.0984 29.6799L72.4778 28.1623" stroke="white" stroke-width="3" stroke-linecap="round"/>
<path d="M75.8922 26.2654C76.6622 26.1371 77.4305 25.7527 78.1685 25.5067" stroke="white" stroke-width="3" stroke-linecap="round"/>
<path d="M83.1005 25.1273H86.5149" stroke="white" stroke-width="3" stroke-linecap="round"/>
<path d="M91.8263 27.0242C92.3109 27.4819 92.796 27.7972 93.3438 28.1623" stroke="white" stroke-width="3" stroke-linecap="round"/>
<path d="M96.3789 23.9891C93.4672 25.4034 90.658 30.7507 91.8684 33.9374C93.0824 37.1333 96.8134 34.8547 98.3179 33.3894C100.34 31.4204 101.017 25.886 97.1376 25.886" stroke="white" stroke-width="3" stroke-linecap="round"/>
<path d="M138.566 69.0186C154.545 68.4137 170.615 66.4412 186.647 65.7317C243.164 63.2305 300.179 64.0736 356.76 64.417C419.912 64.8002 482.867 66.1132 545.704 70.7935C576.186 73.0639 606.552 75.6144 636.748 79.405C649.674 81.0277 668.411 81.5466 679.527 87.4249C695.007 95.61 721.535 103.747 719.93 120.162C719.22 127.429 714.394 134.098 711.338 140.935C709.316 145.458 708.152 148.745 701.831 150.927C677.994 159.155 648.041 160.612 622.305 162.891C571.264 167.411 520.668 168.579 469.286 167.755C385.063 166.405 301.209 164.133 217.178 159.67C199.946 158.754 184.119 157.54 166.903 159.341C150.316 161.076 132.459 165.835 115.713 166.046C89.9392 166.371 62.271 165.322 36.7356 162.496C8.43689 159.366 2 136.888 2 120.162C2 107.463 7.75482 98.5802 22.3843 91.5663C26.5153 89.5858 25.3842 80.4747 28.3259 77.3014" stroke="white" stroke-width="3" stroke-linecap="round"/>
</svg>
