<svg width="12" height="12" viewBox="0 0 12 12" fill="none" xmlns="http://www.w3.org/2000/svg">
<path d="M4 6.99988C3.85833 6.99988 3.7395 6.95188 3.6435 6.85588C3.54783 6.76021 3.5 6.64154 3.5 6.49988C3.5 6.35821 3.54783 6.23938 3.6435 6.14338C3.7395 6.04771 3.85833 5.99988 4 5.99988C4.14167 5.99988 4.2605 6.04771 4.3565 6.14338C4.45217 6.23938 4.5 6.35821 4.5 6.49988C4.5 6.64154 4.45217 6.76021 4.3565 6.85588C4.2605 6.95188 4.14167 6.99988 4 6.99988ZM6 6.99988C5.85833 6.99988 5.73967 6.95188 5.644 6.85588C5.548 6.76021 5.5 6.64154 5.5 6.49988C5.5 6.35821 5.548 6.23938 5.644 6.14338C5.73967 6.04771 5.85833 5.99988 6 5.99988C6.14167 5.99988 6.2605 6.04771 6.3565 6.14338C6.45217 6.23938 6.5 6.35821 6.5 6.49988C6.5 6.64154 6.45217 6.76021 6.3565 6.85588C6.2605 6.95188 6.14167 6.99988 6 6.99988ZM8 6.99988C7.85833 6.99988 7.73967 6.95188 7.644 6.85588C7.548 6.76021 7.5 6.64154 7.5 6.49988C7.5 6.35821 7.548 6.23938 7.644 6.14338C7.73967 6.04771 7.85833 5.99988 8 5.99988C8.14167 5.99988 8.26033 6.04771 8.356 6.14338C8.452 6.23938 8.5 6.35821 8.5 6.49988C8.5 6.64154 8.452 6.76021 8.356 6.85588C8.26033 6.95188 8.14167 6.99988 8 6.99988ZM2.5 10.9999C2.225 10.9999 1.9895 10.902 1.7935 10.7064C1.59783 10.5104 1.5 10.2749 1.5 9.99988V2.99988C1.5 2.72488 1.59783 2.48954 1.7935 2.29388C1.9895 2.09788 2.225 1.99988 2.5 1.99988H3V1.48738C3 1.34571 3.04783 1.22904 3.1435 1.13738C3.2395 1.04571 3.35833 0.999878 3.5 0.999878C3.64167 0.999878 3.7605 1.04771 3.8565 1.14338C3.95217 1.23938 4 1.35821 4 1.49988V1.99988H8V1.48738C8 1.34571 8.048 1.22904 8.144 1.13738C8.23967 1.04571 8.35833 0.999878 8.5 0.999878C8.64167 0.999878 8.76033 1.04771 8.856 1.14338C8.952 1.23938 9 1.35821 9 1.49988V1.99988H9.5C9.775 1.99988 10.0105 2.09788 10.2065 2.29388C10.4022 2.48954 10.5 2.72488 10.5 2.99988V9.99988C10.5 10.2749 10.4022 10.5104 10.2065 10.7064C10.0105 10.902 9.775 10.9999 9.5 10.9999H2.5ZM2.5 9.99988H9.5V4.99988H2.5V9.99988Z" fill="white"/>
</svg>
