<svg width="229" height="175" viewBox="0 0 229 175" fill="none" xmlns="http://www.w3.org/2000/svg">
<path d="M-26.409 93.6799H-7.89999V204.72H19.86V107.56H47.62V204.72H75.38V107.56H103.14V204.72H130.9V93.6799H149.402C154.51 93.6799 158.66 88.572 158.66 83.9708C158.66 81.1879 157.126 78.051 154.808 76.5381L154.822 76.1772L154.676 75.9204L155.606 75.6914L68.44 30.7965V17.6661C82.32 25.0155 95.8599 12.357 117.02 19.9701V-9.03211C95.8461 -16.6383 82.32 -3.98673 68.44 -11.3362V-13.1961C68.44 -15.4932 64.0609 -17.3601 61.5 -17.3601C58.9391 -17.3601 54.56 -15.4932 54.56 -13.1961V30.7965L-32.5995 75.6012L-30.7187 75.7469L-28.72 75.8233V75.8372C-35.66 77.3501 -34.1054 81.1809 -34.1054 83.9639C-34.1124 88.572 -31.5168 93.6799 -26.409 93.6799ZM-14.84 211.66L-35.66 232.48H158.66L137.84 211.66H-14.84ZM137.84 100.62V204.72H143.982L146.695 208.558L165.197 225.901L171.742 232.48H228.06V100.62H137.84ZM179.48 183.9H158.66V163.08H179.48V183.9ZM179.48 142.26H158.66V121.44H179.48V142.26ZM207.24 183.9H193.36V163.08H207.24V183.9ZM207.24 142.26H193.36V121.44H207.24V142.26ZM-20.9888 204.72H-14.84V100.62H-105.06V232.48H-48.7488L-42.2114 226.595L-23.7024 208.551L-20.9888 204.72ZM-70.36 183.9H-84.24V163.08H-70.36V183.9ZM-70.36 142.26H-84.24V121.44H-70.36V142.26ZM-35.66 183.9H-56.48V163.08H-35.66V183.9ZM-35.66 142.26H-56.48V121.44H-35.66V142.26Z" fill="url(#paint0_linear_57_5)"/>
<defs>
<linearGradient id="paint0_linear_57_5" x1="25.412" y1="48.5699" x2="132.288" y2="184.594" gradientUnits="userSpaceOnUse">
<stop stop-color="#0C1F16"/>
<stop offset="1" stop-color="#009345"/>
</linearGradient>
</defs>
</svg>
