<svg width="164" height="125" viewBox="0 0 164 125" fill="none" xmlns="http://www.w3.org/2000/svg">
<path fill-rule="evenodd" clip-rule="evenodd" d="M19.8727 99.3439H65.8115V147.238C60.2922 147.238 54.758 147.232 49.2209 147.244C41.5369 147.255 33.8381 147.456 26.1658 147.255C17.6668 147.031 11.2526 143.05 7.28061 135.49C-0.610142 120.509 -8.35619 105.466 -16.2912 90.5141C-20.1333 83.2907 -19.9295 76.5842 -15.1454 69.8127C-12.1923 65.6369 -9.77959 61.0832 -6.85305 56.246C-12.7504 52.6432 -18.5947 49.0847 -25 45.1747C-23.7479 44.9385 -23.1011 44.714 -22.4515 44.7022C-7.62677 44.528 7.22746 44.3095 22.0226 44.3449C23.7118 44.3508 26.1275 45.3815 26.9691 46.7104C35.9732 60.9297 44.7174 75.3025 53.5265 89.634C53.6063 89.7846 53.5384 90.0238 53.5384 90.8241L32.4678 78.1139L19.858 99.3351M61.816 103.768C61.3258 103.614 61.0157 103.431 60.7026 103.431C46.8761 103.396 33.0643 103.351 19.2408 103.455C18.2928 103.466 17.0436 104.42 16.4914 105.294C14.5837 108.292 12.9654 111.472 11.1551 114.541C3.6837 127.165 11.8284 142.498 26.5173 143.204C32.1873 143.481 37.8691 143.313 43.545 143.325C49.6284 143.343 55.7089 143.325 61.816 143.325V103.768Z" fill="#009345"/>
<path fill-rule="evenodd" clip-rule="evenodd" d="M8.71288 112.22C8.71288 112.22 19.8284 114.558 19.979 114.703C20.1297 114.854 25.2002 129.829 25.3035 130.083C25.4069 130.328 19.979 145.448 19.979 145.448L8.16655 133.636L3.90519 117.258L8.72469 112.231" fill="#009345"/>
<path fill-rule="evenodd" clip-rule="evenodd" d="M65.6225 99.7869V147.273C59.1759 147.273 52.741 147.279 46.2943 147.267C40.3025 147.255 34.2988 147.462 28.3069 147.128C12.7793 146.278 4.17688 127.865 12.0706 112.71C13.9842 109.03 15.6941 105.206 17.7199 101.606C18.2987 100.564 19.6247 99.4089 20.611 99.3971C35.2231 99.2701 49.8322 99.335 64.4383 99.3971C64.7691 99.3971 65.0998 99.6244 65.6225 99.8075" fill="#076735"/>
<path fill-rule="evenodd" clip-rule="evenodd" d="M73.1323 11.896C65.8056 25.8111 58.8186 39.0677 51.7251 52.531C37.5088 45.0418 23.6262 37.7358 9.3478 30.2112C11.92 25.3297 14.5069 20.4394 17.0761 15.5401C20.6435 8.73022 24.0514 1.82876 27.8078 -4.87483C31.9658 -12.2813 38.4745 -16.0938 47.0149 -16.0938C63.9393 -16.0938 80.8754 -15.9313 97.7998 -15.9904C105.98 -15.9933 111.821 -12.7183 115.578 -5.32961C117.89 -0.769985 120.808 3.47956 123.716 8.32859C129.652 4.78484 135.517 1.27653 141.976 -2.57434C141.598 -1.3547 141.494 -0.675486 141.193 -0.102579C134.43 13.1008 127.724 26.3279 120.784 39.428C119.995 40.9222 117.967 42.5789 116.384 42.7059C99.616 44.0407 82.8245 45.0861 66.033 46.2024C65.8647 46.2024 65.6934 46.0282 64.9876 45.6502L86.0464 32.9281C81.8293 26.0532 77.6713 19.2847 73.1412 11.896M49.6639 46.9525C50.033 46.5893 50.3431 46.4003 50.4937 46.1256C56.9522 33.9115 63.4313 21.7062 69.7865 9.4242C70.2176 8.59733 69.9548 7.03808 69.435 6.14623C67.675 3.05136 65.6107 0.14253 63.7355 -2.89624C56.0515 -15.385 38.69 -15.323 31.2216 -2.65999C28.3334 2.22153 25.844 7.33339 23.1891 12.3507C20.3364 17.7284 17.5132 23.1208 14.6723 28.5162C26.6738 34.8417 38.1821 40.9016 49.6727 46.9525" fill="#009345"/>
<path fill-rule="evenodd" clip-rule="evenodd" d="M66.9308 -3.98889C66.9308 -3.98889 59.6838 4.75236 59.483 4.82028C59.2763 4.88229 43.6631 2.40462 43.3973 2.36918C43.1227 2.34261 32.27 -9.50238 32.27 -9.50238L48.2464 -14.4489L64.7337 -10.5832L66.9308 -3.98299" fill="#009345"/>
<path fill-rule="evenodd" clip-rule="evenodd" d="M51.4003 52.153C37.6092 44.8912 23.7945 37.6088 9.37437 30.0193C12.3895 24.3198 15.3781 18.6261 18.3844 12.9325C21.1987 7.6287 23.8063 2.21858 26.8894 -2.92281C34.8835 -16.2591 55.1892 -15.2994 64.9138 -1.24839C67.2704 2.16247 69.8721 5.45225 72.1135 8.91922C72.7573 9.92623 73.1619 11.6272 72.7071 12.5132C66.0065 25.4951 59.1523 38.3944 52.3158 51.2877C52.1593 51.583 51.8137 51.772 51.4003 52.1441" fill="#076735"/>
<path fill-rule="evenodd" clip-rule="evenodd" d="M122.863 100.649L99.548 61.0655C113.404 52.9119 126.924 44.9503 140.827 36.7642C143.629 41.5188 146.426 46.2881 149.237 51.0603C153.153 57.6665 157.231 64.2076 160.958 70.9171C165.066 78.3531 164.892 85.8924 160.4 93.1601C151.482 107.557 142.454 121.87 133.615 136.296C129.342 143.272 123.454 146.499 115.197 145.797C110.105 145.371 104.958 145.613 99.3 145.546L98.9781 166.799C98.1335 165.851 97.6049 165.393 97.2771 164.832C89.6049 152.146 81.8884 139.477 74.3874 126.681C73.5369 125.222 73.2062 122.62 73.9297 121.218C81.6019 106.254 89.5547 91.4207 97.4277 76.5665C97.5133 76.4277 97.7525 76.3656 98.4524 75.9552C98.3727 84.2062 98.2841 92.1649 98.1985 100.558C106.255 100.599 114.204 100.623 122.875 100.661M105.404 62.2408C105.513 62.7458 105.513 63.1032 105.667 63.3778C112.66 75.3084 119.632 87.239 126.74 99.0811C127.216 99.8843 128.684 100.487 129.723 100.519C133.282 100.646 136.849 100.416 140.408 100.428C155.073 100.463 164.151 85.6621 157.317 72.6388C154.674 67.6185 151.632 62.8049 148.768 57.9116C145.691 52.6609 142.593 47.4162 139.498 42.1596C127.812 49.0463 116.602 55.6406 105.419 62.232" fill="#009345"/>
<path fill-rule="evenodd" clip-rule="evenodd" d="M139.631 103.729C139.631 103.729 136.004 92.974 136.052 92.7643C136.111 92.5576 146.435 80.5886 146.606 80.3701C146.76 80.1515 162.55 77.1541 162.55 77.1541L158.365 93.3432L146.396 105.336L139.631 103.729Z" fill="#009345"/>
<path fill-rule="evenodd" clip-rule="evenodd" d="M100.035 61.0123L140.963 36.9119C144.235 42.4667 147.516 48.0097 150.761 53.5675C153.791 58.7414 157.019 63.809 159.768 69.1334C166.906 82.9541 155.415 99.7101 138.346 100.596C134.206 100.812 130.042 101.278 125.919 101.367C124.718 101.37 123.049 100.835 122.547 99.9788C115.031 87.4546 107.663 74.8418 100.286 62.232C100.121 61.9514 100.145 61.5498 100.035 61.0123Z" fill="#076735"/>
</svg>
