<svg width="59" height="60" viewBox="0 0 59 60" fill="none" xmlns="http://www.w3.org/2000/svg">
<path d="M41.0834 48.9584L58.5834 53.625L57.4167 59.1667L30 51.875L2.58337 59.1667L1.12504 53.625L18.625 48.9584L0.833374 44.2917L2.29171 38.75L29.7084 46.0417L57.125 38.75L58.5834 44.2917L41.0834 48.9584ZM47.5 18.3334C47.5 23.5834 45.1667 27.9584 41.6667 31.1667V38.75H35.8334V32.9167H32.9167V38.75H27.0834V32.9167H24.1667V38.75H18.3334V31.1667C14.8334 27.9584 12.5 23.5834 12.5 18.3334C12.5 13.6921 14.3438 9.24089 17.6257 5.959C20.9076 2.67712 25.3588 0.833374 30 0.833374C34.6413 0.833374 39.0925 2.67712 42.3744 5.959C45.6563 9.24089 47.5 13.6921 47.5 18.3334ZM27.0834 16.875C27.0834 14.5417 25.0417 12.5 22.7084 12.5C20.375 12.5 18.3334 14.5417 18.3334 16.875C18.3334 19.2084 20.375 21.25 22.7084 21.25C25.0417 21.25 27.0834 19.2084 27.0834 16.875ZM32.9167 27.0834L30 21.25L27.0834 27.0834H32.9167ZM41.6667 16.875C41.6667 14.5417 39.625 12.5 37.2917 12.5C34.9584 12.5 32.9167 14.5417 32.9167 16.875C32.9167 19.2084 34.9584 21.25 37.2917 21.25C39.625 21.25 41.6667 19.2084 41.6667 16.875Z" fill="#0C1F16"/>
</svg>
