<svg width="60" height="59" viewBox="0 0 60 59" fill="none" xmlns="http://www.w3.org/2000/svg">
<path d="M30 0.0535889C33.8302 0.0535889 37.623 0.808008 41.1616 2.27377C44.7003 3.73953 47.9156 5.88794 50.624 8.59631C53.3323 11.3047 55.4807 14.52 56.9465 18.0587C58.4123 21.5973 59.1667 25.39 59.1667 29.2203C59.1667 36.9557 56.0938 44.3744 50.624 49.8442C45.1542 55.314 37.7355 58.3869 30 58.3869C26.1698 58.3869 22.3771 57.6325 18.8384 56.1668C15.2998 54.701 12.0844 52.5526 9.37606 49.8442C3.90626 44.3744 0.833344 36.9557 0.833344 29.2203C0.833344 21.4848 3.90626 14.0661 9.37606 8.59631C14.8459 3.1265 22.2645 0.0535889 30 0.0535889ZM30 5.88692C23.8116 5.88692 17.8767 8.34525 13.5009 12.7211C9.12501 17.0969 6.66668 23.0319 6.66668 29.2203C6.66668 35.4086 9.12501 41.3436 13.5009 45.7194C17.8767 50.0953 23.8116 52.5536 30 52.5536C36.1884 52.5536 42.1233 50.0953 46.4992 45.7194C50.875 41.3436 53.3333 35.4086 53.3333 29.2203C53.3333 23.0319 50.875 17.0969 46.4992 12.7211C42.1233 8.34525 36.1884 5.88692 30 5.88692ZM41.6667 23.3869V43.8036C41.6667 44.5771 41.3594 45.319 40.8124 45.866C40.2654 46.413 39.5236 46.7203 38.75 46.7203H21.25C20.4765 46.7203 19.7346 46.413 19.1876 45.866C18.6406 45.319 18.3333 44.5771 18.3333 43.8036V23.3869H41.6667ZM34.375 11.7203L37.2917 14.6369H44.5833V20.4703H15.4167V14.6369H22.7083L25.625 11.7203H34.375Z" fill="#0C1F16"/>
</svg>
