<svg width="50" height="60" viewBox="0 0 105 108" fill="none" xmlns="http://www.w3.org/2000/svg">
<g opacity="1">
<path d="M105 88C105 98.7568 81.2703 107.876 56.6005 107.876C31.9308 107.876 0.5 98.4567 0.5 87.7C0.5 76.9433 31.9308 68.9026 56.6005 68.9026C81.2703 68.9026 105 77.2433 105 88Z" fill="url(#paint0_radial_36_32)"/>
<path d="M57.4007 12C37.6007 12 21.7006 19.6 21.7006 28.7V82.7C21.7006 91.8 37.6007 99 57.4007 99C77.0007 99 93.0006 91.8 93.0006 82.7V28.7C93.0006 19.6 77.0007 12 57.4007 12Z" fill="#888A85"/>
<path d="M57.4007 9.6C37.5007 9.6 37.5007 99 57.4007 99C77.0007 99 93.0006 91.9 93.0006 82.7V26C93.0006 17 77.0007 9.6 57.4007 9.6Z" fill="url(#paint1_linear_36_32)"/>
<path d="M39.4007 40L21.7006 31.7V83C21.7006 88 29.0007 94.7 39.5007 96.7L39.4007 40Z" fill="url(#paint2_linear_36_32)"/>
<path d="M21.6007 39.7V57.4C42.5007 72.5 72.5006 73 93.0006 57.4V39.7C73.0006 56 42.0007 54.5 21.6007 39.7Z" fill="url(#paint3_linear_36_32)"/>
<path d="M57.7007 0C82.0007 0 101.401 10 101.401 22V25.5C101.401 38 82.0007 48 57.7007 48C33.5007 48 14.0007 38 14.0007 25.5V22C14.0007 10 33.5007 0 57.7007 0Z" fill="#D3D7CF"/>
<path d="M57.7007 41C82.0007 41 101.401 34.6 101.401 21.4V31.5C101.401 44 82.0007 54 57.7007 54C33.5007 54 14.0007 44 14.0007 31.5V21.4C14.0007 29.3 33.5007 41 57.7007 41Z" fill="#888A85"/>
<path d="M13.4741 18.5251C13.4741 29.9251 40.7554 36.0697 57.7007 36.0697C75.353 36.0697 101.397 32.3251 101.397 18.5251L101.401 21.8839C101.401 37.9344 72.0007 41.1339 57.7007 41.1339C43.9007 41.1339 13.3819 32.7955 13.3819 20.7955" fill="url(#paint4_linear_36_32)"/>
<path d="M58.0007 41C30.7007 41 1.50065 28.6 23.5006 44.7C31.7006 50.7 43.7007 53.7 58.0007 53.7C72.4007 53.7 84.0006 50.7 92.7006 44.7C114.001 29.5 85.0007 41 58.0007 41Z" fill="url(#paint5_linear_36_32)"/>
<path d="M38.4007 17.6H78.5006C83.0006 17.6 83.0006 24.5 78.5006 24.5H38.4007C34.0007 24.5 33.8007 17.6 38.4007 17.6Z" fill="url(#paint6_linear_36_32)"/>
<path d="M58.6007 1.3C40.0007 1.3 38.5007 7.3 38.5007 13.6V20.4C38.5007 23.3 46.0007 22.7 46.0007 20.4V18C46.0007 13.6 50.5007 12.5 58.6007 12.5C66.7007 12.5 71.0007 13.6 71.0007 18V20.4C71.0007 22.7 78.6006 22.7 78.6006 20.4V13.6C78.6006 7.3 77.0007 1.3 58.6007 1.3Z" fill="black"/>
<path d="M58.6007 3.3C50.4007 3.3 44.0007 4.5 44.0007 9.4H73.0007C73.0007 4.5 66.7007 3.3 58.6007 3.3Z" fill="url(#paint7_linear_36_32)"/>
<path d="M29.0007 65.6V81C29.0007 87.9 37.0007 88 37.0007 81V65.6C37.0007 60.3 29.0007 59.9 29.0007 65.6ZM77.0007 65.6V81C78.9007 86.9 84.5006 85.7 85.0006 81V65.6C85.0006 60.6 77.2007 60.7 77.0007 65.6ZM44.4007 69.7V88C44.4007 94.3 52.9007 93.7 53.0007 88L56.6005 68.9026C56.6005 63.5026 44.5007 64 44.4007 69.7ZM61.0007 69.7V88C61.0007 94.5 69.9007 93.8 70.0007 88V69.7C68.6007 63.6 61.8007 64.2 61.0007 69.7Z" fill="black"/>
<path d="M85.0006 73C85.0006 77.2 77.0007 77 77.0007 73V80.4C77.0007 86 85.0006 86.7 85.0006 80.4V73ZM29.0007 73V80.4C29.0007 88.4 37.0007 88 37.0007 80.4V73C37.0007 77.9 29.0007 77.6 29.0007 73ZM53.0007 79.8C53.0007 84.9 44.4007 84 44.4007 79.8V87.7C44.4007 94.6 52.9007 93.6 53.0007 87.7V79.8ZM70.0007 79.8C70.0007 85.6 61.0007 84.7 61.0007 79.8V87.7C61.0007 94.8 70.0007 94 70.0007 87.7V79.8Z" fill="url(#paint8_linear_36_32)"/>
</g>
<defs>
<radialGradient id="paint0_radial_36_32" cx="0" cy="0" r="1" gradientUnits="userSpaceOnUse" gradientTransform="translate(55.7614 96.011) rotate(90) scale(16.6238 59.7569)">
<stop offset="0.0989583"/>
<stop offset="0.734375" stop-opacity="0"/>
<stop offset="1" stop-opacity="0"/>
</radialGradient>
<linearGradient id="paint1_linear_36_32" x1="105" y1="-33.3041" x2="30.5418" y2="-33.3041" gradientUnits="userSpaceOnUse">
<stop stop-color="white"/>
<stop offset="1" stop-color="white" stop-opacity="0"/>
</linearGradient>
<linearGradient id="paint2_linear_36_32" x1="-15.3511" y1="-82.4839" x2="125.548" y2="-82.4839" gradientUnits="userSpaceOnUse">
<stop stop-color="white"/>
<stop offset="1" stop-color="white" stop-opacity="0"/>
</linearGradient>
<linearGradient id="paint3_linear_36_32" x1="-16.4776" y1="-6.27762" x2="-16.4776" y2="163.587" gradientUnits="userSpaceOnUse">
<stop/>
<stop offset="1" stop-opacity="0"/>
</linearGradient>
<linearGradient id="paint4_linear_36_32" x1="-18.9486" y1="73.8374" x2="-18.9486" y2="-97.9343" gradientUnits="userSpaceOnUse">
<stop stop-color="white"/>
<stop offset="1" stop-color="white" stop-opacity="0"/>
</linearGradient>
<linearGradient id="paint5_linear_36_32" x1="-22.7664" y1="103.501" x2="-22.7664" y2="28.4962" gradientUnits="userSpaceOnUse">
<stop stop-color="white"/>
<stop offset="1" stop-color="white" stop-opacity="0"/>
</linearGradient>
<linearGradient id="paint6_linear_36_32" x1="-84.314" y1="-9.38054" x2="-84.314" y2="193.865" gradientUnits="userSpaceOnUse">
<stop/>
<stop offset="1" stop-opacity="0"/>
</linearGradient>
<linearGradient id="paint7_linear_36_32" x1="-168.862" y1="-5.30539" x2="-168.862" y2="153.856" gradientUnits="userSpaceOnUse">
<stop stop-color="white"/>
<stop offset="1" stop-color="white" stop-opacity="0"/>
</linearGradient>
<linearGradient id="paint8_linear_36_32" x1="68.9" y1="85.77" x2="68.9" y2="68.4" gradientUnits="userSpaceOnUse">
<stop/>
<stop offset="1" stop-opacity="0"/>
</linearGradient>
</defs>
</svg>
