<svg width="200" height="179" viewBox="0 0 200 179" fill="none" xmlns="http://www.w3.org/2000/svg">
<path d="M86 -6.9021C54.0756 -6.9021 28.1094 17.3607 28.1094 47.1908C28.1094 77.021 54.0756 101.284 86 101.284C117.924 101.284 143.891 77.021 143.891 47.1908C143.891 17.3607 117.924 -6.9021 86 -6.9021ZM82.2906 6.04983L77.0474 20.7157L100.268 18.4425L97.9589 11.1787L104.471 12.8635V20.9221L114.643 21.542L112.654 14.3102L118.001 11.4167C128.933 19.9584 135.875 32.8009 135.875 47.1908C135.875 54.1264 134.261 60.702 131.366 66.611L119.73 68.451V81.549C117.51 83.4522 115.111 85.1638 112.561 86.6629L107.566 79.4028L97.8355 81.8827L100.57 91.7801C95.8461 93.1193 90.9363 93.7979 86 93.794C72.1895 93.794 59.7101 88.5782 50.6881 80.1351L59.5765 78.99L65.5481 68.0374L46.528 59.152L60.0187 48.4058L48.2981 39.3141L36.3223 43.0436C37.7081 28.2937 46.41 15.5381 59.0305 7.95889L61.567 26.9147L82.2906 6.04983ZM99.6043 32.7705L83.4974 42.414L97.5719 54.1035L107.737 51.3273L106.798 62.7247L125.408 58.341L118.37 43.4372L107.111 43.5833L117.12 35.5467L99.6048 32.7705H99.6043ZM82.8726 49.5738L74.2714 53.0803L80.3699 57.3179L82.8726 49.5738ZM62.6723 50.8862L56.7016 57.498L73.2436 68.3616L62.6723 50.8862ZM89.2842 54.5416L83.1856 65.2092L97.8854 74.5606L92.7242 67.6925L99.1358 60.5326L89.2842 54.5416ZM-1.20553 65.9407C-5.1323 65.8837 -9.15124 70.5565 -9.1744 82.5356C-9.20913 100.908 -11.1142 106.093 -2.01511 126.871C4.65701 142.108 7.64906 153.819 29 163.283C31.5294 171.614 30.5199 173.573 28.8041 180.692C27.2027 187.339 43.6878 188.561 55.7606 182.961C68.7152 176.359 67.6282 158.18 65.3139 145.852C62.6224 131.515 54.1544 128.536 46.8143 122.412C39.1928 112.228 37.4191 93.779 25.0581 86.3366C22.4766 84.7825 9.30741 83.2047 27.4013 125.426C3.54551 119.905 7.89087 94.3129 6.16572 75.3649C5.65183 69.7222 2.259 65.9902 -1.20553 65.9403V65.9407ZM173.206 65.9407C169.741 65.9906 166.348 69.7222 165.834 75.3653C164.109 94.3129 168.455 119.905 144.599 125.426C162.693 83.2042 149.523 84.7825 146.942 86.3366C134.581 93.779 132.808 112.228 125.186 122.412C117.846 128.536 109.377 131.515 106.686 145.852C104.372 158.18 103.285 176.359 116.239 182.961C128.312 188.56 144.797 187.339 143.195 180.692C141.48 173.573 140.471 171.614 143 163.283C164.351 153.819 167.343 142.108 174.015 126.871C183.114 106.093 181.209 100.908 181.174 82.536C181.151 70.5565 177.132 65.8837 173.206 65.9407Z" fill="url(#paint0_linear_39_135)"/>
<defs>
<linearGradient id="paint0_linear_39_135" x1="22.5177" y1="15.6929" x2="126.527" y2="171.092" gradientUnits="userSpaceOnUse">
<stop stop-color="#173B2A"/>
<stop offset="1" stop-color="#009345"/>
</linearGradient>
</defs>
</svg>
